<?xml version="1.0" encoding="utf-8"?>
<!-- Generator: Adobe Illustrator 23.1.0, SVG Export Plug-In . SVG Version: 6.00 Build 0)  -->
<svg version="1.1" id="Layer_1" xmlns="http://www.w3.org/2000/svg" xmlns:xlink="http://www.w3.org/1999/xlink" x="0px" y="0px"
	 viewBox="0 0 1811.3 304.7" style="enable-background:new 0 0 1811.3 304.7;" xml:space="preserve">
<style type="text/css">
	.st0{fill:#FFFFFF;}
</style>
<g id="grid">
</g>
<g id="visible-grid">
</g>
<g id="logos">
	<path class="st0" d="M324.3,228.7c0-18.4-7.2-35.7-20.2-48.7l0,0l-91.9-91.9c-1.1-1.1-2-2.2-2.8-3.4c-5.6-8.8-2.7-19.7,3-25.4
		c6.4-6.4,18.6-9.3,28,1.2c4.8,5.4,7.9,15.4,20.4,28.3c9.9,10.3,20.5,18,31.4,20.8c7.6,1.9,10-1.1,7.1-6.9
		C286,76.2,279.7,38.5,285,21.4c-4.2-4.2-14.1-11-21.6-14.5c-23.1-10.9-53-10.2-78.5,11.7c-1.8,1.5-3.5,3-5.2,4.7
		c-26.8,26.8-26.8,70.5,0,97.3l91.9,91.9l0,0c4.3,4.3,6.7,10,6.7,16.1s-2.4,11.8-6.7,16.1c-4.3,4.3-10,6.7-16.1,6.7
		s-11.8-2.4-16.1-6.7l0,0l-93.2-93.2l0,0c-13-13-30.3-20.2-48.7-20.2s-35.7,7.2-48.7,20.2l0,0L0,200.3c0,0,54.9,55.1,57.9,58.3
		c17.3,18.3,36.9,39,67.8,39h130.6l0,0c18.1-0.2,35-7.3,47.8-20.1C317.1,264.4,324.3,247.1,324.3,228.7z M91.3,227
		c-3.2-3.4-26.3-26.6-26.3-26.6l16.2-16.2l0,0c4.3-4.3,10-6.7,16.1-6.7s11.8,2.4,16.1,6.7l0,0l0,0l67.4,67.4h-55.2
		C115.1,251.6,105.8,242.2,91.3,227z"/>
	<g>
		<polygon class="st0" points="830.9,123.2 789.2,249.2 788.6,249.2 743.6,120.7 714,120.7 669,249.2 668.3,249.2 626.6,123.2 
			592.3,123.2 654.1,298.2 683.7,298.2 728.5,165.5 773.9,298.2 803.5,298.2 865.3,123.2 		"/>
		<polygon class="st0" points="1165.4,253.2 1164.9,253.2 1080.2,123.2 1038.9,123.2 1038.9,298.2 1070,298.2 1070,164 1070.5,164 
			1157,298.2 1196.5,298.2 1196.5,123.2 1165.4,123.2 		"/>
		<path class="st0" d="M1373,144.7c-8.2-7.2-17.7-12.6-28.4-16.2c-10.7-3.5-21.8-5.3-33.4-5.3h-68.9v174.9h65.2
			c10.5,0,21.3-1.8,32.2-5.3c11-3.5,20.9-8.9,29.9-16.1s16.3-16.2,22-27.2c5.7-11,8.5-23.9,8.5-38.9c0-14.8-2.5-27.7-7.4-38.7
			C1387.9,161.1,1381.3,152,1373,144.7z M1362.1,238c-3.7,7.5-8.8,13.6-15.2,18.3c-6.4,4.7-14,8.2-22.6,10.4
			c-8.6,2.2-17.8,3.3-27.5,3.3h-23.2V151.4h28.4c9.6,0,18.3,1.1,26.3,3.3s14.9,5.7,20.8,10.4c5.8,4.7,10.4,10.8,13.7,18.4
			c3.3,7.6,4.9,16.6,4.9,27.2C1367.6,221.4,1365.8,230.5,1362.1,238z"/>
		<path class="st0" d="M913.1,123.2l-61.7,174.9h35.9l7.5-24.3h75.7l7.5,24.3h35.9l-61.7-174.9L913.1,123.2L913.1,123.2z M903.2,247
			l29.5-95.4l29.5,95.4H903.2z"/>
		<path class="st0" d="M1513.7,118.4c-51,0-92.3,41.3-92.3,92.3s41.3,92.3,92.3,92.3s92.3-41.3,92.3-92.3S1564.7,118.4,1513.7,118.4
			z M1513.7,273.2c-34.5,0-62.5-28-62.5-62.5s28-62.5,62.5-62.5s62.5,28,62.5,62.5S1548.2,273.2,1513.7,273.2z"/>
		<path class="st0" d="M1719,118.4c-51,0-92.3,41.3-92.3,92.3S1668,303,1719,303s92.3-41.3,92.3-92.3S1770,118.4,1719,118.4z
			 M1719,273.2c-34.5,0-62.5-28-62.5-62.5s28-62.5,62.5-62.5s62.5,28,62.5,62.5S1753.5,273.2,1719,273.2z"/>
		<g>
			<g>
				<g>
					<path class="st0" d="M530.2,195.9c-14.5-3.6-52.7-14.7-40.6-36c5.8-10.2,22.8-15,36.1-12.5c14.3,2.7,26.5,12.6,31,19.7
						c7.2-8.3,14.3-16.7,21.5-25c-12.7-12.9-41.8-24.1-64.9-22.9c-15,0.8-31.6,6.7-42.8,17c-10.5,9.6-16.4,22.7-15.7,36.8
						c1.3,25.9,26.1,42.6,62.3,51.6c12.2,3,34.6,8.1,36.1,22.6c1.7,16-18.2,23.9-32.5,24.6c-16.7,0.8-32.5-5.3-43-15.9
						c-2.9-2.9-5.9-6.2-7.9-9.2c-5.3,5.1-12.9,11.9-18.2,17c-2.5,2.4-4.9,4.8-7.4,7.2c1.9,2.1,4,4.2,6.3,6.1l0,0
						c18.8,17.2,51,26.5,72.6,25.5c35-1.7,66.1-18.1,64.3-55.4C585.6,209.6,544.6,199.4,530.2,195.9z"/>
				</g>
			</g>
		</g>
	</g>
</g>
</svg>
