<?xml version="1.0" encoding="utf-8"?>
<!-- Generator: Adobe Illustrator 23.1.0, SVG Export Plug-In . SVG Version: 6.00 Build 0)  -->
<svg version="1.1" id="Layer_1" xmlns="http://www.w3.org/2000/svg" xmlns:xlink="http://www.w3.org/1999/xlink" x="0px" y="0px"
	 viewBox="0 0 1396.3 627.5" style="enable-background:new 0 0 1396.3 627.5;" xml:space="preserve">
<style type="text/css">
	.st0{fill:#14283C;}
</style>
<g id="grid">
</g>
<g id="visible-grid">
</g>
<g id="logos">
	<path class="st0" d="M843.8,230.2c0-18.4-7.2-35.7-20.2-48.7l0,0l-91.9-91.9c-1.1-1.1-2-2.2-2.8-3.4c-5.6-8.8-2.7-19.7,3-25.4
		c6.4-6.4,18.6-9.3,28,1.2c4.8,5.4,7.9,15.4,20.4,28.3c9.9,10.3,20.5,18,31.4,20.8c7.6,1.9,10-1.1,7.1-6.9
		c-13.3-26.5-19.6-64.2-14.3-81.3c-4.2-4.2-14.1-11-21.6-14.5c-23.1-11-53.1-10.2-78.5,11.6c-1.8,1.5-3.5,3-5.2,4.7
		c-26.8,26.8-26.8,70.5,0,97.3l91.9,91.9l0,0c4.3,4.3,6.7,10,6.7,16.1s-2.4,11.8-6.7,16.1s-10,6.7-16.1,6.7s-11.8-2.4-16.1-6.7l0,0
		l-93.2-93.2l0,0c-13-13-30.3-20.2-48.7-20.2s-35.7,7.2-48.7,20.2l0,0l-48.7,48.7c0,0,54.9,55.1,57.9,58.3
		c17.3,18.3,36.9,39,67.8,39h130.6l0,0c18.1-0.2,35-7.3,47.8-20.1C836.6,265.8,843.8,248.6,843.8,230.2z M610.8,228.4
		c-3.2-3.4-26.3-26.6-26.3-26.6l16.2-16.2l0,0c4.3-4.3,10-6.7,16.1-6.7s11.8,2.4,16.1,6.7l0,0l0,0l67.4,67.4h-55.2
		C634.6,253,625.3,243.7,610.8,228.4z"/>
	<g>
		<polygon class="st0" points="398.5,448.1 356.8,574.1 356.2,574.1 311.1,445.6 281.6,445.6 236.6,574.1 235.9,574.1 194.2,448.1 
			159.9,448.1 221.6,623.1 251.3,623.1 296,490.3 341.4,623.1 371.1,623.1 432.8,448.1 		"/>
		<g>
			<g>
				<g>
					<path class="st0" d="M97.8,520.7c-14.5-3.6-52.7-14.7-40.6-36c5.8-10.2,22.8-15,36.1-12.5c14.3,2.7,26.5,12.6,31,19.7
						c7.2-8.3,14.3-16.7,21.5-25c-12.7-12.9-41.8-24.1-65-22.9c-15,0.8-31.6,6.7-42.8,17c-10.5,9.6-16.4,22.7-15.7,36.8
						c1.3,25.9,26.1,42.6,62.3,51.6c12.2,3,34.6,8.1,36.1,22.6c1.7,16-18.2,23.9-32.5,24.6c-16.7,0.8-32.5-5.3-43-15.9
						c-2.9-2.9-5.9-6.2-7.9-9.2c-5.3,5.1-12.9,11.9-18.2,17c-2.5,2.4-4.9,4.8-7.4,7.2c1.9,2.1,4,4.2,6.3,6.1l0,0
						c18.8,17.2,51,26.5,72.6,25.5c35-1.7,66.1-18.1,64.3-55.4C153.2,534.5,112.2,524.3,97.8,520.7z"/>
				</g>
			</g>
		</g>
		<polygon class="st0" points="733,578.1 732.5,578.1 647.7,448.1 606.5,448.1 606.5,623.1 637.6,623.1 637.6,488.9 638.1,488.9 
			724.6,623.1 764.1,623.1 764.1,448.1 733,448.1 		"/>
		<path class="st0" d="M940.6,469.6c-8.2-7.2-17.7-12.6-28.4-16.2c-10.7-3.5-21.8-5.3-33.4-5.3h-68.9V623h65.2
			c10.5,0,21.3-1.8,32.2-5.3c11-3.5,20.9-8.9,29.9-16.1c9-7.2,16.3-16.2,22-27.2s8.5-23.9,8.5-38.9c0-14.8-2.5-27.7-7.4-38.7
			C955.4,486,948.8,476.9,940.6,469.6z M929.6,562.9c-3.7,7.5-8.8,13.6-15.2,18.3s-14,8.2-22.6,10.4s-17.8,3.3-27.5,3.3H841V476.3
			h28.4c9.6,0,18.3,1.1,26.3,3.3c8,2.2,14.9,5.7,20.8,10.4c5.8,4.7,10.4,10.8,13.7,18.4c3.3,7.6,4.9,16.6,4.9,27.2
			C935.2,546.3,933.3,555.4,929.6,562.9z"/>
		<path class="st0" d="M480.6,448.1L418.9,623h35.9l7.5-24.3H538l7.5,24.3h35.9l-61.7-174.9H480.6z M470.7,571.9l29.5-95.4
			l29.5,95.4H470.7z"/>
		<path class="st0" d="M1081.3,443.3c-51,0-92.3,41.3-92.3,92.3s41.3,92.3,92.3,92.3s92.3-41.3,92.3-92.3S1132.3,443.3,1081.3,443.3
			z M1081.3,598.1c-34.5,0-62.5-28-62.5-62.5s28-62.5,62.5-62.5s62.5,28,62.5,62.5S1115.8,598.1,1081.3,598.1z"/>
		<path class="st0" d="M1286.6,443.3c-51,0-92.3,41.3-92.3,92.3s41.3,92.3,92.3,92.3s92.3-41.3,92.3-92.3S1337.6,443.3,1286.6,443.3
			z M1286.6,598.1c-34.5,0-62.5-28-62.5-62.5s28-62.5,62.5-62.5s62.5,28,62.5,62.5S1321.1,598.1,1286.6,598.1z"/>
	</g>
</g>
</svg>
